{"title":"The crystal method - Born too slow","uid":6476875,"size":209264640,"categoryP":"video","categoryS":"music_videos","magnet":"?xt=urn:btih:7ac954f9b71c3bf713c85a1c06fb2d7396294068&amp;dn=The+crystal+method+-+Born+too+slow&amp;tr=udp%3A%2F%2Ftracker.openbittorrent.com%3A80&amp;tr=udp%3A%2F%2Fopen.demonii.com%3A1337&amp;tr=udp%3A%2F%2Ftracker.coppersurfer.tk%3A6969&amp;tr=udp%3A%2F%2Fexodus.desync.com%3A6969","seeders":0,"leechers":1,"uploader":"RAP.tile","files":1,"time":1308340087,"description":"General\n      Complete name : The crystal method - Born too slow\n      Format : MPEG-PS\n      File size : 200 MiB\n      Duration : 3mn 44s\n      Overall bit rate : 7 455 Kbps\n   Video #224\n      ID : 224 (0xE0)\n      Format : MPEG Video\n      Format version : Version 2\n      Format profile : Main@Main\n      Format settings, Matrix : Default\n      Duration : 3mn 44s\n      Bit rate mode : Variable\n      Bit rate : 5 623 Kbps\n      Nominal bit rate : 7 800 Kbps\n      Width : 720 pixels\n      Height : 480 pixels\n      Display aspect ratio : 4:3\n      Frame rate : 29.970 fps\n      Standard : NTSC\n      Colorimetry : 4:2:0\n      Scan type : Interlaced\n      Scan order : Top Field First\n      Bits/(Pixel*Frame) : 0.543\n      Stream size : 151 MiB (75%)\n   Audio #160\n      ID : 160 (0xA0)\n      Format : PCM\n      Format settings, Endianness : Big\n      Format settings, Sign : Signed\n      Muxing mode : DVD-Video\n      Duration : 3mn 44s\n      Bit rate mode : Constant\n      Bit rate : 1 536 Kbps\n      Channel(s) : 2 channels\n      Channel positions : Front: L R\n      Sampling rate : 48.0 KHz\n      Resolution : 16 bits\n      Stream size : 41.1 MiB (21%)","torrent":{"xt":"urn:btih:7ac954f9b71c3bf713c85a1c06fb2d7396294068","amp;dn":"The+crystal+method+-+Born+too+slow","amp;tr":["udp%3A%2F%2Ftracker.openbittorrent.com%3A80","udp%3A%2F%2Fopen.demonii.com%3A1337","udp%3A%2F%2Ftracker.coppersurfer.tk%3A6969","udp%3A%2F%2Fexodus.desync.com%3A6969"],"infoHash":"7ac954f9b71c3bf713c85a1c06fb2d7396294068","infoHashBuffer":{"type":"Buffer","data":[122,201,84,249,183,28,59,247,19,200,90,28,6,251,45,115,150,41,64,104]},"announce":[],"urlList":[]}}